<?xml version="1.0" encoding="utf-8"?>
<!-- Generator: Adobe Illustrator 21.0.0, SVG Export Plug-In . SVG Version: 6.00 Build 0)  -->
<svg version="1.1" id="Instagram" xmlns="http://www.w3.org/2000/svg" xmlns:xlink="http://www.w3.org/1999/xlink" x="0px" y="0px"
	 viewBox="0 0 216 216" style="enable-background:new 0 0 216 216;" xml:space="preserve">
<style type="text/css">
	.st0{clip-path:url(#SVGID_2_);}
	.st1{fill:#409480;}
</style>
<g>
	<g>
		<defs>
			
				<rect id="SVGID_1_" x="56.5" y="56.5" transform="matrix(1 -4.363227e-03 4.363227e-03 1 -0.4702 0.4723)" width="103" height="103"/>
		</defs>
		<clipPath id="SVGID_2_">
			<use xlink:href="#SVGID_1_"  style="overflow:visible;"/>
		</clipPath>
		<g class="st0">
			<path class="st1" d="M107.8,65.8c13.8-0.1,15.4,0,20.8,0.2c3.3,0,6.5,0.6,9.6,1.7c4.5,1.7,8,5.3,9.8,9.7c1.2,3.1,1.8,6.3,1.8,9.5
				c0.3,5.4,0.3,7.1,0.4,20.8s0,15.4-0.2,20.8c0,3.3-0.6,6.5-1.7,9.6c-1.7,4.5-5.2,8.1-9.7,9.8c-3.1,1.1-6.3,1.8-9.6,1.8
				c-5.4,0.3-7.1,0.3-20.8,0.4s-15.4,0-20.8-0.2c-3.3,0-6.5-0.6-9.6-1.7c-4.5-1.7-8-5.2-9.8-9.7c-1.2-3.1-1.8-6.3-1.8-9.6
				c-0.3-5.4-0.3-7.1-0.4-20.8s0-15.4,0.2-20.8c0-3.3,0.6-6.5,1.7-9.6c1.7-4.5,5.3-8,9.7-9.8c3.1-1.2,6.3-1.8,9.6-1.8
				C92.4,65.9,94.1,65.8,107.8,65.8 M107.8,56.5c-14,0.1-15.7,0.1-21.2,0.4C82.3,57,78,57.8,74,59.4c-6.9,2.7-12.4,8.2-15,15.1
				c-1.5,4-2.2,8.2-2.3,12.5c-0.2,5.5-0.3,7.2-0.2,21.2s0.1,15.7,0.4,21.2c0.1,4.3,0.9,8.5,2.5,12.5c2.7,6.9,8.2,12.4,15.1,15
				c4,1.5,8.3,2.2,12.5,2.3c5.5,0.2,7.3,0.3,21.2,0.2s15.7-0.1,21.2-0.4c4.3-0.1,8.5-0.9,12.5-2.4c6.9-2.7,12.4-8.2,15-15.1
				c1.5-4,2.3-8.3,2.3-12.5c0.2-5.5,0.3-7.3,0.2-21.2s-0.1-15.7-0.4-21.2c-0.1-4.3-0.9-8.5-2.4-12.5c-2.7-6.9-8.2-12.4-15.1-15
				c-4-1.5-8.2-2.3-12.5-2.3C123.5,56.5,121.8,56.4,107.8,56.5"/>
			<path class="st1" d="M107.9,81.6c-14.6,0.1-26.4,12-26.3,26.6c0.1,14.6,12,26.4,26.6,26.3c14.6-0.1,26.4-12,26.3-26.6
				S122.5,81.5,107.9,81.6L107.9,81.6L107.9,81.6 M108.1,125.2c-9.5,0-17.2-7.6-17.2-17.1s7.6-17.2,17.1-17.2s17.2,7.6,17.2,17.1
				l0,0l0,0C125.2,117.4,117.6,125.1,108.1,125.2"/>
			<path class="st1" d="M141.6,80.4c0,3.4-2.7,6.2-6.2,6.2c-3.4,0-6.2-2.7-6.2-6.2c0-3.4,2.7-6.2,6.1-6.2
				C138.8,74.2,141.5,77,141.6,80.4L141.6,80.4L141.6,80.4"/>
		</g>
	</g>
</g>
</svg>
